<svg width="512" height="512" viewBox="0 0 512 512" fill="none" xmlns="http://www.w3.org/2000/svg">
<rect width="512" height="512" fill="white"/>
<path d="M283.787 512C189.196 512 94.6053 512 0 512C0 341.348 0 170.697 0 0C170.656 0 341.328 0 512 0C512 117.144 512 234.291 512 351.437C511.074 351.49 510.976 350.675 510.726 350.124C506.1 339.917 501.344 329.769 496.665 319.588C492.722 311.011 488.757 302.443 484.792 293.876C480.086 283.705 475.433 273.508 470.729 263.338C466.79 254.824 462.862 246.307 458.936 237.789C453.454 225.896 447.953 214.014 442.491 202.111C437.817 191.924 433.095 181.762 428.399 171.588C423.6 161.192 418.794 150.798 414.011 140.395C410.221 132.149 406.428 123.904 402.622 115.665C400.683 111.462 398.715 107.272 396.814 103.051C396.415 102.162 396.022 101.272 395.395 100.508C394.826 99.4898 393.828 99.7048 392.948 99.7028C386.245 99.6844 379.539 99.6926 372.836 99.6926C361.501 99.6926 350.165 99.6885 338.829 99.6946C336.081 99.6966 336.038 99.6925 335.118 102.22C330.08 116.079 325.153 129.978 320.164 143.856C313.999 161.001 307.853 178.153 301.705 195.305C296.296 210.391 290.894 225.479 285.483 240.564C284.557 243.145 283.673 245.742 282.692 248.302C282.434 248.977 282.249 249.709 281.598 250.157C280.621 250.276 280.437 249.391 280.056 248.848C273.418 239.372 266.797 229.884 260.155 220.41C251.034 207.395 241.902 194.388 232.817 181.346C224.532 169.456 216.207 157.592 207.907 145.713C198.386 132.086 188.83 118.485 179.343 104.835C179.028 104.382 178.657 103.985 178.291 103.576C177.541 99.9219 175.055 99.584 171.805 99.6127C154.685 99.7601 137.562 99.6823 120.441 99.6823C119.953 99.6823 119.466 99.6721 118.979 99.6864C117.264 99.7376 117.137 99.8769 117.672 101.487C118.864 105.071 120.134 108.63 121.393 112.189C125.68 124.307 129.929 136.44 134.197 148.566C140.206 165.632 146.211 182.702 152.209 199.772C156.412 211.726 160.618 223.681 164.815 235.637C170.826 252.768 176.855 269.892 182.876 287.019C187.906 301.33 192.934 315.644 197.966 329.955C204.655 348.979 211.356 367.999 218.028 387.027C220.326 393.579 222.824 400.06 224.811 406.721C224.821 409.172 225.307 411.412 226.617 413.616C235.645 428.784 244.531 444.035 253.458 459.264C260.569 471.392 267.659 483.535 274.79 495.653C277.598 500.427 280.414 505.197 283.179 509.997C283.531 510.601 284.101 511.179 283.787 512Z" fill="#2B36DC"/>
<path d="M283.787 512C280.57 506.544 277.342 501.092 274.137 495.628C264.362 478.974 254.591 462.318 244.824 445.659C238.416 434.729 232.233 423.649 225.802 412.731C225.231 410.55 224.627 409.041 224.336 406.909C225.677 407.554 225.747 408.963 226.089 410.112C226.57 411.726 227.434 412.305 229.122 412.301C246.426 412.256 263.729 412.254 281.033 412.301C282.776 412.305 283.617 411.673 284.203 410.034C291.6 389.388 298.973 368.732 306.399 348.097C314.155 326.543 321.886 304.98 329.617 283.419C336.28 264.839 342.934 246.256 349.596 227.674C356.69 207.89 363.796 188.111 370.899 168.329C376.437 152.906 381.985 137.484 387.475 122.044C389.802 115.501 392.129 108.958 394.537 102.443C394.811 101.7 394.875 100.725 395.905 100.469C396.478 100.71 396.61 101.276 396.835 101.765C402.065 113.103 407.294 124.441 412.52 135.78C416.446 144.298 420.362 152.82 424.288 161.337C430.688 175.221 437.092 189.102 443.496 202.983C448.115 212.992 452.741 222.999 457.357 233.009C464.318 248.109 471.273 263.213 478.235 278.313C482.773 288.158 487.317 298 491.858 307.845C498.311 321.837 504.76 335.833 511.228 349.819C511.478 350.36 511.5 351.015 511.998 351.437C511.998 404.957 511.998 458.478 511.998 512C435.929 512 359.858 512 283.787 512Z" fill="#090F36"/>
<path d="M395.907 100.469C391.213 113.523 386.507 126.573 381.823 139.629C352.549 221.239 323.281 302.852 294.009 384.465C290.783 393.458 287.549 402.446 284.318 411.435C283.777 412.936 283.773 412.94 282.153 412.942C264.178 412.944 246.2 412.944 228.225 412.942C226.515 412.942 226.519 412.936 225.952 411.353C225.419 409.87 224.877 408.39 224.338 406.909C221.932 400.015 219.535 393.118 217.115 386.228C193.823 319.967 170.527 253.706 147.235 187.445C137.122 158.677 127.013 129.909 116.904 101.14C116.687 100.522 116.324 99.9321 116.447 99.1334C117.064 99.1334 117.668 99.1334 118.27 99.1334C137.279 99.1334 156.289 99.1334 175.297 99.1334C175.602 99.1334 175.909 99.1621 176.21 99.1293C176.931 99.0515 177.289 99.3689 177.539 100.047C177.957 101.179 178.207 102.377 178.819 103.434C181.264 107.7 182.505 112.443 184.121 117.029C191.087 136.794 198.048 156.563 204.986 176.337C209.949 190.478 214.907 204.622 219.894 218.757C227.232 239.555 234.527 260.368 241.869 281.166C246.211 293.46 250.556 305.752 254.826 318.071C255.021 318.632 255.076 319.269 255.547 319.719C256.049 319.545 256.07 319.068 256.203 318.695C262.773 300.21 269.482 281.776 276.05 263.291C277.416 259.445 278.778 255.597 280.226 251.779C280.474 251.128 280.531 250.309 281.381 250.042C285.34 239.051 289.311 228.065 293.255 217.07C307.151 178.34 321.034 139.606 334.93 100.874C335.616 98.9614 335.229 99.1396 337.316 99.1375C356.327 99.1314 375.337 99.1334 394.348 99.1334C394.592 99.1334 394.836 99.1252 395.08 99.1355C396.11 99.1744 396.11 99.1764 395.907 100.469Z" fill="white"/>
<path d="M281.387 250.04C278.772 257.378 276.169 264.72 273.541 272.052C267.835 287.982 262.119 303.905 256.403 319.83C256.205 320.383 256.104 320.985 255.64 321.571C255.158 321.157 255.099 320.59 254.935 320.123C238.572 273.623 222.22 227.119 205.869 180.613C197.046 155.525 188.221 130.437 179.403 105.347C179.182 104.718 179.014 104.073 178.821 103.434C180.701 105.525 182.155 107.928 183.759 110.217C207.587 144.261 231.393 178.319 255.205 212.374C263.621 224.408 272.036 236.442 280.445 248.478C280.793 248.977 281.076 249.518 281.387 250.04Z" fill="#090F36"/>
</svg>
